<svg width="22" height="24" viewBox="0 0 22 24" fill="none" xmlns="http://www.w3.org/2000/svg">
<path d="M4.1643 24L2.42333 22.8141L3.53337 21.1993C5.02197 19.0038 7.46988 17.7163 10.0951 17.7163H10.9527C15.8238 17.7163 19.8115 14.2088 19.8115 9.91845C19.8115 5.62812 15.8238 2.14512 10.9527 2.14512C6.08168 2.14512 2.09394 5.6526 2.09394 9.94293C2.09394 12.2399 3.25526 14.4097 5.2486 15.8994L3.98673 17.5901C1.43827 15.6973 0 12.8955 0 9.91851C0 4.46675 4.92127 0 10.9525 0C17.0094 0 21.905 4.44227 21.905 9.91851C21.905 15.3947 17.0094 19.836 10.9525 19.836H10.0948C8.15174 19.836 6.35944 20.7952 5.27399 22.3855L4.1643 24Z" fill="white"/>
<path d="M10.9525 14.9403C7.69742 14.9403 5.14795 12.9716 5.14795 10.4478H7.26748C7.26748 11.7353 8.95817 12.8197 10.9771 12.8197C12.996 12.8197 14.6867 11.7343 14.6867 10.4478H16.8063C16.757 12.9715 14.2076 14.9403 10.9525 14.9403Z" fill="white"/>
</svg>
