<svg width="24" height="21" viewBox="0 0 24 21" fill="none" xmlns="http://www.w3.org/2000/svg">
<path d="M3.32977 20.7921C3.05888 20.7921 2.83832 20.5716 2.83832 20.3007V15.6949H0.491444C0.220557 15.6949 0 15.4743 0 15.2034V0.491444C0 0.220558 0.220545 0 0.491444 0H23.5098C23.6392 0 23.7639 0.0527375 23.8562 0.143834C23.9485 0.236127 24 0.360783 24 0.491428V15.2034C24 15.3341 23.9485 15.4587 23.8562 15.551C23.7639 15.6433 23.6392 15.6948 23.5098 15.6948H8.03585L3.65349 20.671C3.56359 20.7489 3.44843 20.7921 3.32977 20.7921ZM0.982887 14.7132H3.32977C3.46041 14.7132 3.58507 14.7647 3.67736 14.857C3.76846 14.9481 3.82119 15.074 3.82119 15.2034V19.2147L7.52766 14.8343V14.8355C7.61636 14.7564 7.73143 14.712 7.85129 14.712H23.0184V0.982862H0.983179L0.982887 14.7132Z" fill="#333F49"/>
<path d="M9.89199 12C9.71776 12 9.55361 11.92 9.44129 11.7811C9.32897 11.6407 9.28146 11.4565 9.3117 11.2768L9.66159 9.15114L8.17995 7.64445H8.17851C8.01724 7.47989 7.95964 7.2338 8.02876 7.00886C8.09787 6.78543 8.28218 6.62237 8.50538 6.58767L10.5558 6.27817L11.4716 4.34271C11.5709 4.13286 11.7754 4 12 4C12.2232 4 12.4277 4.13286 12.5285 4.34271L13.4442 6.27817L15.4947 6.58767C15.7164 6.62088 15.9022 6.78393 15.9713 7.00886C16.0404 7.2323 15.9828 7.47837 15.8201 7.64294L14.3384 9.14963L14.6883 11.2753V11.2768C14.7272 11.5078 14.6365 11.7418 14.4551 11.8807C14.2736 12.0196 14.0332 12.0377 13.8345 11.929L12 10.9235L10.1656 11.929C10.0806 11.9758 9.98702 12 9.89199 12ZM9.86175 7.63228L10.707 8.49133C10.8467 8.63324 10.9114 8.83856 10.8783 9.03937L10.6782 10.2547L11.7293 9.67947H11.7279C11.8992 9.58436 12.1037 9.58436 12.275 9.67947L13.3262 10.2547L13.126 9.03937C13.0929 8.83858 13.1563 8.63325 13.2959 8.49133L14.1397 7.63378L12.9705 7.45715C12.7805 7.42695 12.6149 7.30165 12.5285 7.11897L12.0001 6.00781L11.4745 7.11746C11.3881 7.30014 11.2225 7.42545 11.0324 7.45564L9.86175 7.63228Z" fill="#333F49" stroke="white" stroke-width="0.5"/>
</svg>
