<svg width="72" height="72" viewBox="30 15 74 74" fill="none" xmlns="http://www.w3.org/2000/svg">
    <rect x="31" y="16" width="72" height="72" rx="36" fill="white"/>
    <rect x="35" y="20" width="64" height="64" rx="32" fill="#E27640"/>
    <path d="M66.9997 60.4001C68.9135 60.3984 70.7498 59.6599 72.1039 58.3474C73.4581 57.0349 74.22 55.2552 74.2218 53.4002V38.0003C74.2218 35.4996 72.8459 33.1879 70.6107 31.9384C68.3755 30.6872 65.6239 30.6872 63.3886 31.9384C61.1534 33.1879 59.7776 35.4997 59.7776 38.0003V53.4002C59.7794 55.2551 60.5413 57.0349 61.8954 58.3474C63.2496 59.6599 65.0858 60.3984 66.9997 60.4001ZM62.6664 38.0003C62.6664 35.6815 64.6073 33.8003 66.9997 33.8003C69.392 33.8003 71.3329 35.6815 71.3329 38.0003V53.4002C71.3329 55.7189 69.392 57.6001 66.9997 57.6001C64.6073 57.6001 62.6664 55.7189 62.6664 53.4002V38.0003ZM68.4441 65.9176V73H65.5553V65.9176C62.3793 65.5694 59.4471 64.1011 57.3168 61.7929C55.1844 59.4847 54.0054 56.4976 54 53.4002H56.8888C56.8888 56.9019 58.8153 60.1358 61.9445 61.8874C65.0735 63.6374 68.9263 63.6374 72.0555 61.8874C75.1844 60.1357 77.1112 56.9017 77.1112 53.4002H80C79.9946 56.4977 78.8156 59.4848 76.6832 61.7929C74.5527 64.1011 71.62 65.5694 68.4441 65.9176Z" fill="white"/>
</svg>
